<svg id="Layer_1" enable-background="new 0 0 510.629 510.629" height="512" viewBox="0 0 510.629 510.629" width="512" xmlns="http://www.w3.org/2000/svg"><path d="m341.053 27.327v74.976c0 4.176 3.385 7.562 7.562 7.562h74.977c6.737 0 10.11-8.145 5.347-12.908l-74.977-74.977c-4.764-4.763-12.909-1.39-12.909 5.347z"/><path d="m440.468 140.837h-114.901c-8.553 0-15.486-6.934-15.486-15.486v-114.901c0-5.771-4.679-10.45-10.45-10.45h-224.434c-8.553 0-15.487 6.934-15.487 15.486v479.656c0 8.553 6.934 15.486 15.486 15.486h360.236c8.553 0 15.486-6.934 15.486-15.486v-343.854c.001-5.772-4.678-10.451-10.45-10.451zm-246.509 168.281c9.786 9.784 2.72 26.437-10.95 26.437-3.963 0-7.927-1.512-10.95-4.536l-39.409-39.408c-6.045-6.043-6.047-15.853 0-21.9l39.409-39.409c6.047-6.049 15.854-6.049 21.9 0 6.048 6.048 6.048 15.853 0 21.9l-28.458 28.459zm99.285-87.957-46.725 129.509c-2.276 6.31-8.227 10.234-14.568 10.234-10.675 0-18.217-10.626-14.566-20.746l46.725-129.509c2.902-8.045 11.774-12.214 19.823-9.312 8.044 2.903 12.213 11.778 9.311 19.824zm84.735 70.449-39.409 39.41c-3.023 3.024-6.987 4.536-10.95 4.536-13.671 0-20.735-16.652-10.95-26.437l28.458-28.459-28.458-28.459c-6.048-6.048-6.048-15.853 0-21.9 6.047-6.049 15.854-6.049 21.9 0l39.409 39.409c6.048 6.048 6.048 15.853 0 21.9z"/></svg>