<svg id="Layer_1" enable-background="new 0 0 510.629 510.629" height="512" viewBox="0 0 510.629 510.629" width="512" xmlns="http://www.w3.org/2000/svg"><path d="m446.383 114.401-109.865-109.865c-2.905-2.904-6.843-4.536-10.951-4.536h-250.371c-8.552 0-15.486 6.934-15.486 15.486v479.656c0 8.553 6.934 15.486 15.486 15.486h360.236c8.553 0 15.486-6.934 15.486-15.486v-369.79c.001-4.108-1.631-8.046-4.535-10.951zm-105.329-61.527 56.991 56.991h-56.991zm-250.371 426.782v-448.683h219.398v94.379c0 8.553 6.934 15.486 15.486 15.486h94.379v338.818z"/><path d="m338.57 230.301c-6.047-6.049-15.854-6.049-21.9 0-6.048 6.048-6.048 15.853 0 21.9l28.458 28.459-28.458 28.459c-9.784 9.784-2.722 26.437 10.95 26.437 3.963 0 7.927-1.512 10.95-4.536l39.409-39.409c6.048-6.048 6.048-15.853 0-21.9z"/><path d="m193.959 230.301c-6.047-6.049-15.854-6.049-21.9 0l-39.409 39.409c-6.044 6.044-6.048 15.855 0 21.9l39.409 39.408c3.023 3.024 6.987 4.536 10.95 4.536 13.672 0 20.735-16.654 10.95-26.437l-28.458-28.458 28.458-28.459c6.048-6.047 6.048-15.851 0-21.899z"/><path d="m283.933 201.338c-8.049-2.902-16.921 1.267-19.823 9.312l-46.725 129.509c-3.651 10.121 3.892 20.746 14.566 20.746 6.342 0 12.292-3.925 14.568-10.234l46.725-129.509c2.902-8.047-1.266-16.922-9.311-19.824z"/></svg>