<svg id="Capa_1" enable-background="new 0 0 507.55 507.55" height="512" viewBox="0 0 507.55 507.55" width="512" xmlns="http://www.w3.org/2000/svg"><g><path d="m405.413 44.941c0-5.531 4.483-10.014 10.014-10.014s10.014 4.483 10.014 10.014-4.483 10.014-10.014 10.014-10.014-4.483-10.014-10.014zm-146.506 60.796c-5.259-1.702-10.893 1.183-12.593 6.437-6.261 19.354-7.2 40.089-2.716 59.962 2.099 9.298 9.103 16.611 18.225 19.285 35.597 10.438 67.755 5.856 77.39 4.229 5.445-.92 9.115-6.079 8.195-11.525-.919-5.444-6.072-9.11-11.525-8.195-22.733 3.839-46.453 2.544-68.594-3.747-2.094-.595-3.695-2.3-4.181-4.449-3.695-16.377-2.922-33.46 2.235-49.403 1.7-5.256-1.182-10.894-6.436-12.594zm-72.61 93.457c5.091 4.987 11.446 2.717 14.142 0 10.763-10.844 17.624-24.495 19.723-39.593 2.029-14.596-.687-29.743-7.647-42.654-2.621-4.86-8.685-6.679-13.548-4.056-4.861 2.62-6.678 8.686-4.057 13.548 10.312 19.126 6.77 43.229-8.614 58.612-3.905 3.905-3.944 10.278.001 14.143zm249.819 106.822c3.825 3.638 6.78 8.31 8.386 13.718 3.983 13.415-2.598 31.415-21.137 36.854l-69.409 18.709c-20.256 5.46-178.877 40.099-212.101 49.151-21.69 5.91-41.055 18.95-54.454 37l-21.37 28.79c-1.897 2.556-4.674 4.119-8.449 4.031s-7.08-2.506-8.596-5.664l-48-100c-1.893-3.943-1.003-8.658 2.196-11.642l28.76-26.815c3.893-3.63 6.548-8.298 7.678-13.499l4.069-18.743c6.047-27.85 22.284-52.117 45.717-68.333l48.242-33.384-8.921-25.637c-3.855-11.435 1.6-23.709 13.308-28.273 15.886-6.194 18.41-20.565 17.858-28.553-1.681-24.334 3.254-40.883 13.599-58.848 10.726-18.628 32.349-42.18 70.161-52.485 23.474-6.397 47.785-9.115 72.248-9.115 32.068 0 57.691 5.749 59.7 6.2 12.869 2.888 8.489 22.407-4.38 19.52-1.78-.4-25.51-5.72-55.32-5.72-22.773 0-45.297 2.916-67.25 8.482-29.392 7.453-50.069 29.195-58.037 43.453s-12.109 26.946-10.817 46.765c1.446 22.171-9.828 40.816-30.486 48.927-1.358.513-2.061 2.015-1.584 3.387l11.303 32.505c1.196 3.158.809 7.964-3.52 11.34-12.607 9.831-22.89 22.261-28.96 36.971l17.365 4.148 6.12-12.951c2.353-4.979 8.266-7.409 13.286-5.148 5.115 2.303 7.325 8.342 4.939 13.392l-4.468 9.455 16.411 3.92c4.663-9.322 9.585-18.512 14.75-27.502l16.585-28.866c6.558-11.503 24.171-20.471 40.965-11.063 14.428 8.082 19.294 26.622 11.06 40.953l-25.271 43.985c-2.882 5.016-5.55 10.207-7.97 15.486 7.671-8.227 26.333-28.372 26.53-28.584 3.595-3.875 7.066-7.946 10.322-12.107l31.821-40.656c10.174-12.997 28.276-15.498 41.544-6.165 10.783 7.585 18.621 27.133 6.001 42.768l-27.986 35.757c-6.44 8.227-13.283 16.279-20.346 24.002 9.501-1.069 18.993-2.867 28.219-5.353l67.352-18.155c56.049-15.15 93.73-64.785 93.77-123.504 0-6.8-.53-13.72-1.56-20.55-4.58-30.21-18.89-57.791-41.4-79.75-9.524-9.291 4.342-23.504 13.97-14.32 28.102 26.803 42.957 62.077 47.2 91.08 1.145 7.827 1.79 15.75 1.79 23.54.001 47.318-21.897 96.859-71.433 127.096zm-10.881 19.084c-1.522-5.448-6.908-8.581-12.28-7.134l-81.321 21.92c-10.373 2.796-21.049 4.809-31.731 5.982 0 0-18.351 1.963-25.294 2.777-9.801 1.149-15.672-8.98-9.118-16.807l16.135-17.396c7.372-7.946 14.497-16.305 21.18-24.843l27.986-35.756c1.688-2.156 4.757-9.115-2.01-14.264-4.228-3.217-10.593-2.085-14.035 2.314l-31.821 40.656c-3.6 4.599-7.437 9.1-11.405 13.377-.202.219-20.779 22.431-27.643 29.776-5.693 6.093-14.849 7.882-21.938 4.737-10.842-4.809-15.258-15.974-9.752-27.971 7.958-17.338 34.035-60.989 34.035-60.989 2.698-4.696 1.042-11.016-3.696-13.656-4.688-2.612-11.204-.806-13.646 3.693l-16.584 28.865c-10.319 17.96-20.135 37.797-27.762 55.804-1.314 3.103-4.526 6.09-9.204 6.09h-34.988c-14.957 0-28.72 7.508-36.817 20.084l-6.637 10.309c-7.215 11.207-24.031.381-16.816-10.826l6.637-10.309c11.795-18.32 31.845-29.258 53.633-29.258h28.426c.866-1.969 1.749-3.933 2.64-5.895l-49.518-11.826c-11.839-2.857-16.478-13.961-15.099-22.736-25.06 15.825-38.641 37.682-43.558 60.329l-4.069 18.743c-1.999 9.203-6.696 17.462-13.583 23.884l-23.383 21.802 37.649 78.435 11.495-15.485c16.079-21.661 39.307-37.35 65.345-44.4 33.422-9.051 192.797-43.948 212.065-49.142l69.409-18.709c4.193-.965 8.79-6.03 7.073-12.175z"/></g></svg>